<svg width="70" height="71" viewBox="0 0 70 71" fill="none" xmlns="http://www.w3.org/2000/svg">
<g id="Sun">
<circle id="Ellipse 4" cx="35" cy="35.7023" r="21.3043" fill="url(#paint0_linear_386_2112)"/>
<path id="Union" fill-rule="evenodd" clip-rule="evenodd" d="M35 0.702148C33.9494 0.702148 33.0978 1.55378 33.0978 2.60432V8.69128C33.0978 9.74182 33.9494 10.5935 35 10.5935C36.0505 10.5935 36.9021 9.74182 36.9021 8.69128V2.60432C36.9021 1.55378 36.0505 0.702148 35 0.702148ZM35 60.811C33.9494 60.811 33.0978 61.6626 33.0978 62.7131V68.8001C33.0978 69.8506 33.9494 70.7023 35 70.7023C36.0505 70.7023 36.9021 69.8506 36.9021 68.8001V62.7131C36.9021 61.6626 36.0505 60.811 35 60.811ZM49.9016 6.08756C50.4268 5.17776 51.5902 4.86604 52.5 5.39131C53.4098 5.91658 53.7215 7.07993 53.1962 7.98973L50.1527 13.2612C49.6275 14.171 48.4641 14.4827 47.5543 13.9574C46.6445 13.4322 46.3328 12.2688 46.8581 11.359L49.9016 6.08756ZM22.4456 57.4468C21.5358 56.9216 20.3725 57.2333 19.8472 58.1431L16.8037 63.4145C16.2784 64.3243 16.5902 65.4877 17.5 66.0129C18.4097 66.5382 19.5731 66.2265 20.0984 65.3167L23.1418 60.0452C23.6671 59.1354 23.3554 57.9721 22.4456 57.4468ZM62.7125 17.5058C63.6223 16.9805 64.7856 17.2922 65.3109 18.202C65.8362 19.1118 65.5244 20.2752 64.6146 20.8005L59.3432 23.8439C58.4334 24.3692 57.27 24.0575 56.7448 23.1477C56.2195 22.2379 56.5312 21.0745 57.441 20.5493L62.7125 17.5058ZM13.2553 48.2565C12.73 47.3467 11.5666 47.0349 10.6569 47.5602L5.38539 50.6037C4.4756 51.129 4.16388 52.2923 4.68915 53.2021C5.21442 54.1119 6.37777 54.4236 7.28757 53.8983L12.559 50.8549C13.4688 50.3296 13.7805 49.1662 13.2553 48.2565ZM68.0978 33.8C69.1484 33.8 70 34.6517 70 35.7022C70 36.7528 69.1484 37.6044 68.0978 37.6044H62.0109C60.9603 37.6044 60.1087 36.7528 60.1087 35.7022C60.1087 34.6517 60.9603 33.8 62.0109 33.8H68.0978ZM9.8913 35.7025C9.8913 34.6519 9.03967 33.8003 7.98913 33.8003H1.90218C0.851633 33.8003 4.59204e-08 34.6519 0 35.7025C-4.59213e-08 36.753 0.851635 37.6046 1.90218 37.6046H7.98913C9.03967 37.6046 9.8913 36.753 9.8913 35.7025ZM64.6146 50.6038C65.5244 51.1291 65.8362 52.2924 65.3109 53.2022C64.7856 54.112 63.6223 54.4237 62.7125 53.8985L57.441 50.855C56.5312 50.3297 56.2195 49.1664 56.7448 48.2566C57.27 47.3468 58.4334 47.0351 59.3432 47.5603L64.6146 50.6038ZM13.2552 23.148C13.7805 22.2382 13.4688 21.0749 12.559 20.5496L7.28754 17.5061C6.37774 16.9809 5.21439 17.2926 4.68912 18.2024C4.16385 19.1122 4.47557 20.2755 5.38537 20.8008L10.6568 23.8443C11.5666 24.3696 12.73 24.0578 13.2552 23.148ZM53.1962 63.4146C53.7215 64.3244 53.4098 65.4878 52.5 66.013C51.5902 66.5383 50.4269 66.2266 49.9016 65.3168L46.8581 60.0453C46.3328 59.1355 46.6446 57.9722 47.5543 57.4469C48.4641 56.9216 49.6275 57.2334 50.1528 58.1431L53.1962 63.4146ZM22.4456 13.9572C23.3554 13.432 23.6672 12.2686 23.1419 11.3588L20.0984 6.08736C19.5731 5.17756 18.4098 4.86584 17.5 5.39111C16.5902 5.91638 16.2785 7.07974 16.8037 7.98953L19.8472 13.261C20.3725 14.1708 21.5358 14.4825 22.4456 13.9572Z" fill="url(#paint1_linear_386_2112)"/>
</g>
<defs>
<linearGradient id="paint0_linear_386_2112" x1="46.9837" y1="17.4414" x2="27.6471" y2="57.1729" gradientUnits="userSpaceOnUse">
<stop offset="0.182844" stop-color="#FFE600"/>
<stop offset="0.980542" stop-color="#F09000"/>
</linearGradient>
<linearGradient id="paint1_linear_386_2112" x1="60.6793" y1="9.83258" x2="8.74995" y2="70.7021" gradientUnits="userSpaceOnUse">
<stop stop-color="#FFE600"/>
<stop offset="1" stop-color="#AA9900"/>
</linearGradient>
</defs>
</svg>
