<svg width="48" height="44" viewBox="0 0 48 44" fill="none" xmlns="http://www.w3.org/2000/svg">
<g id="Group 1">
<path id="Vector 1" d="M30.9813 11.6341C39.9719 14.55 42.9687 23.937 43.1264 24.0947C44.4934 20.7824 47.2589 13.7476 47.3851 12.1073C47.5428 10.0568 46.7542 8.6373 45.9656 7.5332C45.1769 6.42909 43.5996 4.8517 39.0255 3.11672C34.4513 1.38175 29.7157 0.872099 24.6722 1.06623C20.5712 1.22409 16.3844 3.39336 14.9648 5.44375C14.0575 6.58767 13.0002 8.63723 14.262 12.4228C15.1876 15.1994 18.3297 17.7992 20.0121 18.693C18.5926 17.4311 16.0689 14.7498 17.4166 12.4228C19.478 8.86359 25.1453 9.7414 30.9813 11.6341Z" fill="white"/>
<path id="Vector 2" d="M1.87294 6.7187C5.9739 1.8291 17.5909 0.396792 24.0052 0.554521C22.5331 0.817413 20.062 1.1629 18.1693 1.97408C16.4343 2.71766 15.1222 3.72188 14.1758 4.82598C13.0054 6.19142 12.5985 7.94172 12.5985 9.24239C12.5985 10.8197 12.9642 12.3841 13.7529 13.8037C14.5415 15.2233 14.9721 15.5724 15.9108 16.4979C16.5342 17.1126 16.9422 17.3966 17.6458 17.9175C18.3599 18.446 19.854 19.1793 19.854 19.1793C19.854 19.1793 23.9047 21.0849 25.69 22.9648C27.4753 24.8447 26.3712 27.2107 25.69 28.1699C24.1653 28.2224 19.3562 28.545 14.8067 27.3812C8.02437 25.6462 3.76568 22.4916 1.71521 18.3907C0.966411 16.8931 -1.75619 11.0457 1.87294 6.7187Z" fill="white"/>
<path id="Vector 3" d="M17.8038 39.0402C14.6493 36.6428 11.7576 33.4672 10.8638 32.1002C13.3349 32.4156 19.318 32.6364 22.2202 31.627C25.848 30.3652 27.1098 28.4724 27.583 27.0528C28.0562 25.6333 28.2721 24.604 27.1098 23.1096C26.0057 21.6901 24.3233 20.954 23.3244 20.2705C26.0057 20.9014 30.6427 21.7946 32.3149 22.4787C35.7849 23.8983 37.7269 26.0618 38.3086 29.2611C38.9395 32.7311 35.4527 35.3942 33.7345 36.9898C31.5263 39.0402 25.8181 43.4566 24.5862 43.4566C23.4821 43.4566 21.7471 42.0371 17.8038 39.0402Z" fill="white"/>
</g>
</svg>
